<svg width="9" height="15" fill="none" xmlns="http://www.w3.org/2000/svg"><path d="M9 14.849c0 .075-.077.151-.154.151s-.154-.076-.154-.151c0-.53-.23-.91-.615-1.212-.385-.303-.847-.53-1.462-.758a7.073 7.073 0 01-1.077-.53c-.385-.152-.692-.38-1-.682-.692-.682-1-1.591-1-2.727 0-.076.077-.152.154-.152s.154.076.154.152c0 1.06.307 1.894.923 2.5.308.303.615.53.923.681.385.152.692.303 1 .455.615.227 1.077.454 1.538.833.462.303.693.834.77 1.44z" fill="#8D959A"/><path d="M4.077 8.94v.15l.077.152V9.47c-.077.151-.154.227-.308.227s-.308 0-.384-.076l-.154-.151v-.076-.152l.154-.303c-.539-.227-1.154-.757-1.847-1.59A8.246 8.246 0 01.154 4.696C.077 4.318 0 4.015 0 3.637 0 2.575.385 1.741 1.077 1.06 1.769.379 2.615 0 3.692 0 4.77 0 5.615.379 6.308 1.06 7 1.743 7.385 2.577 7.385 3.637c0 .38-.077.682-.154 1.061a9.744 9.744 0 01-1.385 2.651c-.692.834-1.23 1.364-1.77 1.591z" fill="#EF4B44"/><path d="M2.077 3.636c0 .303-.077.606-.23.834-.078.227-.232.378-.385.378-.154 0-.385-.075-.462-.303a1.441 1.441 0 01-.308-.909c0-.303.077-.606.231-.833.154-.227.308-.303.462-.303.154 0 .384.076.461.303.154.227.231.53.231.833z" fill="#F5A7B9"/></svg>