<svg width="15" height="15" fill="none" xmlns="http://www.w3.org/2000/svg"><path d="M7.82 14.662c-4.944 0-6.265-5.153-5.668-8.53a.167.167 0 0 1 .303-.065c.26.382.491.933.874.886.576-.072.975-5.155 4.39-6.585a.152.152 0 0 1 .209.157c-.169 1.657.826 4.028 2.587 4.028 1.01 0 1.701-.806 2.047-1.616.104-.246.464-.215.524.046.616 2.668 2.263 11.68-5.266 11.68Z" fill="#FF8000"/><path d="M6.087 9.69a.196.196 0 0 1 .319.12c.062.35.265.951.93.951.802 0 1.346-2.205 1.489-2.853a.202.202 0 0 1 .234-.158c2.003.407 2.976 6.91-1.427 6.91-3.205 0-2.479-4.185-1.545-4.97Zm5.472-7.041c.07-.552-.937.958-.937.958s.768.362.937-.958ZM1.405 10.88c.021-.235-.28-.864-.334-.615-.128.596.313.85.334.615Z" fill="#FFDA2D"/><path d="M9.883 10.085c-.212-.346-.97.456-.875.783.096.326 1.38.042.875-.783Z" fill="#FF8000"/></svg>