<svg width="14" height="12" fill="none" xmlns="http://www.w3.org/2000/svg"><path d="M11.285 11.906s-1.171-1.249-1.857-1.392l-1.514 1.393-.81-6.49L7 4.59l-.104.828-.81 6.488-1.515-1.392c-.685.143-1.857 1.393-1.857 1.393-.423-1.68.614-4.163 1.336-5.607.35-.701.628-1.157.628-1.157l.532-2.186h3.58l.532 2.186s.277.455.627 1.156c.723 1.444 1.76 3.929 1.336 5.607z" fill="#EC1518"/><path d="m9.322 5.143-.533-2.186H5.21l-.532 2.186-.028.046a11.135 11.135 0 0 0-.199.349l-.024.043a20.124 20.124 0 0 0-.377.719c-.722 1.444-1.759 3.928-1.336 5.606 0 0 .216-.23.517-.504-.144-1.642.766-3.797 1.42-5.102v-.003a.766.766 0 0 1 .374-.356 7.28 7.28 0 0 0 .272-.128 3.776 3.776 0 0 1 1.6-.395L7 4.59l.103.828a3.825 3.825 0 0 1 1.6.395c.318.158.739.337 1.246.486-.35-.7-.627-1.156-.627-1.156z" fill="#AB0009"/><path d="M14 4.531c0 .554-.525 1.313-2.596 1.108a7.752 7.752 0 0 1-3.04-.95c-.224-.129-.343-.216-.343-.216H5.979s-1.312.962-3.383 1.166C.525 5.844 0 5.085 0 4.531s.35-1.312.35-2.1c0-.787-.263-.933-.263-1.37 0-.438.73-.963 2.042-.963 1.313 0 2.786.335 3.85 1.4H8.021a4.16 4.16 0 0 1 .343-.308C9.388.367 10.694.098 11.87.098c1.312 0 2.041.525 2.041.962 0 .438-.262.584-.262 1.371s.35 1.546.35 2.1z" fill="#EC1518"/><path d="M2.302 5.663C.475 5.77 0 5.058 0 4.53c0-.554.35-1.312.35-2.1 0-.787-.263-.933-.263-1.37 0-.438.73-.963 2.042-.963.127 0 .255.003.384.01C1.391.18.773.657.773 1.06c0 .438.263.584.263 1.371s-.35 1.546-.35 2.1c0 .454.352 1.045 1.616 1.132zM8.364 1.19v3.497c-.224-.128-.343-.215-.343-.215H6.322V1.498h1.699c.108-.109.223-.211.343-.307z" fill="#AB0009"/><path d="M7.662 1.324H6.338a.36.36 0 0 0-.359.36v2.548c0 .198.16.359.36.359h1.323a.36.36 0 0 0 .359-.36V1.684a.36.36 0 0 0-.36-.359z" fill="#EC1518"/><path d="M6.722 4.232V1.683c0-.198.16-.359.36-.359h-.744a.36.36 0 0 0-.359.36v2.548c0 .198.16.359.36.359h.742a.36.36 0 0 1-.359-.36zM3.05 3.829c1.193 0 2.16-.39 2.16-.871 0-.482-.967-.872-2.16-.872a1.02 1.02 0 0 1 0 1.743zm7.9 0c-1.193 0-2.16-.39-2.16-.871 0-.482.967-.872 2.16-.872a1.02 1.02 0 0 0 0 1.743z" fill="#AB0009"/></svg>