<svg width="12" height="14" fill="none" xmlns="http://www.w3.org/2000/svg"><path d="M12 9.816V4.18a1.118 1.118 0 0 0-.559-.968L6.56.39a1.117 1.117 0 0 0-1.118 0L.56 3.212A1.117 1.117 0 0 0 0 4.179v5.637a1.118 1.118 0 0 0 .559.968l4.882 2.82a1.117 1.117 0 0 0 1.118 0l4.882-2.82a1.118 1.118 0 0 0 .56-.968Z" fill="#BAD8FF"/><path d="M11.441 10.784c.17-.098.312-.24.41-.41L6 6.994v6.758c.196 0 .389-.052.559-.15l4.882-2.819Zm-6-10.392L.56 3.21A1.117 1.117 0 0 0 0 4.179v5.637a1.118 1.118 0 0 0 .559.968l4.882 2.82c.17.097.363.149.559.149V.243c-.196 0-.389.05-.559.149Z" fill="#82B9FF"/><path d="m6 6.998 5.85-3.378a1.116 1.116 0 0 0-.409-.41L6.56.393a1.117 1.117 0 0 0-1.118 0L.56 3.21c-.17.098-.311.239-.41.409L6 6.998Z" fill="#E9F2FF"/><path d="M5.441.392.56 3.21c-.17.098-.311.239-.41.409L6 6.997V.242c-.195 0-.388.052-.558.15Z" fill="#BAD8FF"/><path d="M.559 10.781a1.117 1.117 0 0 1-.41-.41L6 6.992v6.758c-.196 0-.389-.052-.559-.15L.56 10.781Z" fill="#659AE3"/><path d="M.825 3.76a.218.218 0 1 0-.218.377L5.89 7.188l.218-.377L.825 3.76Z" fill="#E9F2FF"/><path d="M6 13.319a.217.217 0 0 0 .218-.218V7.125l5.175-2.988a.219.219 0 0 0 .08-.298.218.218 0 0 0-.298-.08L5.891 6.81a.218.218 0 0 0-.109.19v6.1A.218.218 0 0 0 6 13.32Z" fill="#fff"/></svg>