<svg width="14" height="14" fill="none" xmlns="http://www.w3.org/2000/svg"><path d="M7.41 0h-.82c0 1.813-1.468 3.309-3.281 3.309v.82a3.28 3.28 0 0 1 3.28 3.281h.821a3.28 3.28 0 0 1 3.281-3.281v-.82c-1.813 0-3.28-1.496-3.28-3.309Zm3.281 8.23h-.82a2.468 2.468 0 0 1-2.46 2.461v.82c1.353 0 2.46 1.136 2.46 2.489h.82c0-1.354 1.108-2.488 2.461-2.488v-.82a2.468 2.468 0 0 1-2.46-2.462ZM3.31 6.59h-.82c0 .902-.739 1.64-1.641 1.64v.82c.902 0 1.64.739 1.64 1.641h.82c0-.902.739-1.64 1.641-1.64v-.82c-.902 0-1.64-.739-1.64-1.641Zm1.64 4.922h.82v.82h-.82v-.82Z" fill="#4CEBEB"/><path d="M11.512 6.59h.82v.82h-.82v-.82Z" fill="#4AAEE7"/><path d="M1.668 1.668h.82v.82h-.82v-.82Z" fill="#4CEBEB"/><path d="M9.871 0h.82v.82h-.82V0ZM4.95 8.23v.82c-.902 0-1.64.739-1.64 1.641h-.41V6.59h.41c0 .902.738 1.64 1.64 1.64Zm5.742-4.921v.82a3.28 3.28 0 0 0-3.28 3.281H7V0h.41c0 1.813 1.468 3.309 3.281 3.309Zm2.461 7.382v.82c-1.353 0-2.46 1.136-2.46 2.489h-.41V8.23h.41a2.468 2.468 0 0 0 2.46 2.461Z" fill="#4AAEE7"/></svg>