<svg width="14" height="14" fill="none" xmlns="http://www.w3.org/2000/svg"><path d="M12.744 0H1.256A1.265 1.265 0 0 0 0 1.253v7.163a1.26 1.26 0 0 0 1.256 1.253h3.59c.058.135.128.264.208.387a.557.557 0 0 0 0 .15v3.223a.55.55 0 0 0 .244.451.532.532 0 0 0 .517.036L7 11.5l1.213 2.416c.07.034.146.051.223.05a.56.56 0 0 0 .294-.085.552.552 0 0 0 .244-.452v-3.223a.557.557 0 0 0 0-.15c.081-.123.15-.252.209-.387h3.59A1.265 1.265 0 0 0 14 8.416V1.253A1.26 1.26 0 0 0 12.744 0Z" fill="#8ABBE2"/><path d="M8.436 5.371H5.564a.54.54 0 0 1-.538-.537.537.537 0 0 1 .538-.537h2.872a.54.54 0 0 1 .538.537.537.537 0 0 1-.538.537Zm2.154-2.148H3.41a.54.54 0 0 1-.538-.537.537.537 0 0 1 .538-.538h7.18a.539.539 0 0 1 .538.538.536.536 0 0 1-.538.537Z" fill="#196CAE"/><path d="M9.333 8.774a2.323 2.323 0 0 0-.955-1.837 2.336 2.336 0 0 0-3.562 1.06 2.322 2.322 0 0 0 .21 2.059.557.557 0 0 0 0 .15v3.223a.55.55 0 0 0 .244.452.531.531 0 0 0 .517.035L7 12l1.213 1.916c.07.034.146.051.223.05.104 0 .206-.03.294-.085a.552.552 0 0 0 .244-.452v-3.223a.557.557 0 0 0 0-.15 2.31 2.31 0 0 0 .36-1.282Z" fill="#EF5350"/><path d="M7 11.1a2.33 2.33 0 0 0 2.333-2.327A2.33 2.33 0 0 0 7 6.445a2.33 2.33 0 0 0-2.333 2.328A2.33 2.33 0 0 0 7 11.101Z" fill="#FFDD89"/></svg>