<svg width="9" height="14" fill="none" xmlns="http://www.w3.org/2000/svg"><path d="M5.049 8.09v3.658c.439.211.951.422 1.463.704.512.281.805.492.805.703 0 .211-.293.422-.805.563-.512.14-1.17.211-1.975.211-.805 0-1.464-.07-1.976-.211-.512-.14-.805-.352-.805-.563.073-.21.293-.422.878-.703.512-.282 1.025-.493 1.464-.704V8.09C1.098 7.668-.22 6.4 0 4.432c.22-1.97.44-3.096.732-3.377v.07c0 .281.366.563 1.097.774.732.211 1.61.281 2.634.281 1.098 0 1.976-.07 2.635-.281.731-.211 1.097-.493 1.097-.774v-.14c.22.28.512 1.406.732 3.376.293 2.04-1.025 3.307-3.878 3.729Z" fill="#769CAC"/><path d="M8.267 1.055c0 .352-.366.563-1.098.774-.731.211-1.61.282-2.634.282-1.097 0-1.975-.07-2.634-.282-.732-.21-1.097-.422-1.17-.774 0-.281.365-.563 1.097-.774C2.56.071 3.438 0 4.535 0 5.633 0 6.511.07 7.17.281c.732.211 1.098.493 1.098.774Z" fill="#7EC2DF"/><path d="M7.83 1.477c.22.21.366 1.266.44 3.025.072 1.758-1.172 2.743-3.806 3.025C1.83 7.316.514 6.26.66 4.502c.074-1.76.293-2.744.513-3.025H7.83Z" fill="#921938"/><path d="M7.83 1.477c-.073.211-.365.422-1.024.633-.659.211-1.39.211-2.268.211-.951 0-1.756-.07-2.342-.281-.585-.211-1.024-.352-1.024-.563 0-.281.366-.492.951-.633.659-.14 1.464-.211 2.415-.211.95 0 1.756.07 2.341.21.586.142.951.353.951.634Z" fill="#B42D6B"/><path d="M2.49 6.19a.405.405 0 0 1-.367-.212c-.292-.492-.512-1.055-.585-1.618-.073-.492 0-.985.073-1.477 0-.14.073-.211.147-.281.073-.07.22-.07.292-.07.147 0 .22.07.293.14.073.14.073.211.073.281a3.68 3.68 0 0 0 0 1.267c0 .492.147.914.44 1.407a.208.208 0 0 1 0 .281c0 .07-.074.14-.147.211-.073.07-.146.07-.22.07Z" fill="#BF4F7A"/></svg>