<svg width="13" height="11" fill="none" xmlns="http://www.w3.org/2000/svg"><path d="M3.86 6.176L2.773 7.32.18 4.186l-.091-.12C.05 4.004 0 3.945 0 3.884h2.894l.965 2.292zM2.773 7.32l3.195 3.605L4.37 7.32H2.774z" fill="#0095CF"/><path d="M6.028 10.938c-.06 0-.06 0 0 0L7.65 7.322h1.575l-3.198 3.616zM8.14 6.176l1.086 1.146L12 4.126l.04-.064a.226.226 0 00.02-.117H9l-.86 2.231z" fill="#63C6F1"/><path d="M4.402 2.257L2.894 3.885H0s0-.06.06-.181L2.832.535h.117c.12 0 .187.093.187.274 0 .06.036.05.036.11l1.23 1.338zM2.894 3.885l.965 2.291L6.03 3.885H2.894zm1.448 3.377L5.97 10.94h.06l1.628-3.618-3.316-.06zM5.97 3.885l2.17 2.291.905-2.291H5.97zm2.17 2.291l-.482 1.146h1.575L8.14 6.176z" fill="#44AADF"/><path d="M4.402 2.257L2.834.568V.531h3.13L4.403 2.258zM9.207.532H5.965l1.637 1.725L9.207.532z" fill="#63C6F1"/><path d="M5.97 3.884H2.895l1.507-1.628L5.97 3.884z" fill="#42C2F0"/><path d="M4.377 7.32H2.773L3.86 6.176l.517 1.144z" fill="#0474A7"/><path d="M5.97 3.884l2.17 2.292-.484 1.148H4.36l-.5-1.148 2.11-2.292z" fill="#0095CF"/><path d="M9.105 3.884H5.97l1.628-1.628 1.507 1.628z" fill="#B2E2F9"/><path d="M4.402 2.256L5.97.531l1.63 1.725L5.97 3.885 4.402 2.256zM12 3.764c-.06 0-.06 0 0 0L9.211.515 7.598 2.256l1.508 1.689h2.949c0-.086-.008-.093-.055-.181z" fill="#82D3F2"/><path d="M8.045 3.95c.241-.06.422-.18.603-.301.181-.181.302-.362.362-.603.06-.06.06-.06.12 0 .061.24.182.422.302.603.181.18.362.24.603.301.06.06.06.06 0 .12-.241.061-.422.182-.603.302-.18.181-.241.362-.301.603-.06.06-.06.06-.121 0a1.251 1.251 0 00-.362-.603c-.18-.18-.362-.24-.603-.301-.06-.06-.06-.12 0-.12z" fill="#fff"/></svg>