<svg width="14" height="14" fill="none" xmlns="http://www.w3.org/2000/svg"><path d="m13.9 5.797-.332.811a1.18 1.18 0 0 0 0 .846l.331.812a1.134 1.134 0 0 1-.4 1.346l-.732.501c-.243.173-.4.432-.47.708l-.157.863c-.104.518-.54.898-1.062.915l-.888.034a1.21 1.21 0 0 0-.784.346l-.61.639c-.365.38-.94.466-1.392.207l-.767-.45a1.133 1.133 0 0 0-.853-.12l-.87.207a1.16 1.16 0 0 1-1.29-.587l-.4-.794a1.125 1.125 0 0 0-.644-.552l-.836-.277a1.122 1.122 0 0 1-.767-1.174l.088-.88a1.055 1.055 0 0 0-.244-.811l-.558-.691a1.11 1.11 0 0 1 0-1.398l.558-.69c.191-.225.278-.519.244-.812l-.088-.88a1.122 1.122 0 0 1 .767-1.175l.836-.276c.278-.086.505-.293.644-.552l.4-.795a1.15 1.15 0 0 1 1.29-.587l.87.208c.279.069.592.034.853-.121l.767-.449a1.123 1.123 0 0 1 1.393.207l.61.639c.208.207.487.345.783.345l.888.035c.523.017.975.397 1.062.915l.157.863c.052.293.227.552.47.708l.732.5c.435.38.61.933.4 1.416Z" fill="#07B441"/><path d="M6.054 10.299a.903.903 0 0 1-.662-.294L3.215 7.536a.882.882 0 0 1 .07-1.225.901.901 0 0 1 1.236.069l1.637 1.847 3.814-4.039a.868.868 0 0 1 1.22.139.849.849 0 0 1-.14 1.208l-4.458 4.574a.893.893 0 0 1-.54.19Z" fill="#fff"/></svg>