<svg width="15" height="9" fill="none" xmlns="http://www.w3.org/2000/svg"><path d="M.53 5.087c-.454-.078-.606 0-.606.235s.303.47.682.626c.53.235.985.313 1.515.391-.151.47-.303 1.018-.303 1.487 0 .313.152.626.303.783.227.235.455.313.758.313s.606-.079.757-.313c.228-.235.303-.47.303-.783 0-.704.228-1.252.682-1.722.606-.39 1.137-.626 1.818-.626.228 0 .455 0 .606.079.076.313.455.547 1.137.704.379.47.606 1.017.682 1.643 0 .313.075.626.303.783.227.235.454.313.757.313s.53-.078.758-.313c.227-.235.303-.47.303-.783 0-.704-.152-1.408-.455-1.956.53-.235.91-.548 1.288-.861.379-.391.758-.783.985-1.33.606.078 1.06 0 1.515-.157.53-.157.682-.548.682-1.252-.076-.548-.379-.94-.91-1.33a2.617 2.617 0 00-1.438-.47c-.38 0-.682.156-.985.391-.228.313-.455.626-.53 1.096-.076.548-.38 1.017-.758 1.408-.379.314-.834.548-1.44.548-.757-.548-1.59-.782-2.575-.782-.606 0-1.212.078-1.743.313-.53.235-.985.548-1.44.939-.226 0-.53.078-.833.235a4.455 4.455 0 01-1.818.391z" fill="#6EA018"/><path d="M12.728 1.096c-.152 0-.228.078-.303.156-.076.078-.152.157-.152.313v.548c0 .157.076.235.152.313.075 0 .151.078.303.078.075 0 .227-.078.303-.156.075-.078.075-.157.075-.235v-.548c0-.156-.075-.235-.151-.313 0-.078-.152-.156-.227-.156z" fill="#30393F"/><path d="M1.515 4.148c-.379.313-.53.704-.606 1.095.075.705.606 1.33 1.59 1.8 1.061.47 2.35.705 3.864.705 1.515 0 2.803-.235 3.864-.705 1.06-.47 1.59-1.095 1.667-1.8 0-.391-.228-.782-.607-1.095a5.622 5.622 0 00-1.515-.861c-.378-.705-.757-1.252-1.212-1.644-.379-.391-.682-.548-.833-.47-.076.079-.076.157.076.392.151.157.303.626.454 1.33-.379-.078-.757-.078-1.136-.156-.152-.47-.227-.783-.379-1.096-.151-.313-.227-.47-.303-.47-.076 0-.227.157-.379.47-.151.313-.227.705-.379 1.096-.378 0-.757.078-1.136.156.227-.704.379-1.173.455-1.33.151-.235.227-.313.151-.391-.151-.079-.454.078-.833.391-.455.313-.834.86-1.212 1.644-.682.234-1.212.547-1.591.939z" fill="#C87343"/><path d="M3.257 1.33c-.984.861-1.515 1.957-1.59 3.287-.076.235.227.626.757 1.253.606.547 1.894.939 3.94 1.017h.075c2.121-.157 3.41-.47 4.015-1.017.53-.627.758-1.018.758-1.253-.076-1.33-.606-2.426-1.591-3.287C8.636.548 7.576.078 6.439 0h-.076c-1.06.078-2.12.548-3.106 1.33zm4.622.392c-.228-.313-.228-.47-.152-.548.152-.078.455.078.833.391.455.392.834.94 1.213 1.644.227.548.378.939.303 1.174-.076.234-.152.39-.228.47-.151.234-.379.312-.606.469-.303.078-.53-.313-.682-1.174-.227-1.252-.454-2.113-.681-2.426zM5.833 5.557c-.227-.079-.303-.47-.303-1.096 0-.704.152-1.487.303-2.113.227-.705.379-1.096.606-1.096.227.078.379.391.606 1.096.228.704.303 1.409.303 2.113 0 .626-.151 1.017-.303 1.096-.227.078-.379.156-.606.078-.227.078-.379 0-.606-.078zm-3.03-1.174c-.076-.235.076-.626.303-1.174.379-.705.757-1.252 1.212-1.644.455-.313.682-.47.833-.391.076.078.076.235-.151.548-.227.313-.455 1.095-.682 2.426-.152.86-.379 1.174-.682 1.095-.303-.078-.53-.234-.606-.39-.151-.08-.227-.236-.227-.47z" fill="#874733"/></svg>