<svg width="9" height="14" fill="none" xmlns="http://www.w3.org/2000/svg"><path d="M5.049 8.09v3.659c.439.21.951.422 1.463.703.512.282.805.493.805.704 0 .21-.293.422-.805.563-.512.14-1.17.21-1.975.21-.805 0-1.464-.07-1.976-.21-.512-.141-.805-.352-.805-.563.073-.211.293-.422.878-.704.512-.281 1.025-.492 1.464-.703V8.09C1.098 7.668-.22 6.402 0 4.432c.22-1.97.44-3.095.732-3.377v.07c0 .282.366.563 1.097.774.732.211 1.61.282 2.634.282 1.098 0 1.976-.07 2.635-.282.731-.21 1.097-.492 1.097-.773V.985c.22.281.512 1.407.732 3.377.293 2.04-1.025 3.306-3.878 3.728z" fill="#769CAC"/><path d="M8.268 1.055c0 .352-.366.563-1.098.774-.731.211-1.61.282-2.634.282-1.097 0-1.975-.07-2.634-.282-.732-.21-1.097-.422-1.17-.774 0-.281.365-.563 1.097-.774C2.561.071 3.439 0 4.536 0 5.634 0 6.512.07 7.17.281c.732.211 1.098.493 1.098.774z" fill="#7EC2DF"/><path d="M7.83 1.478c.219.21.365 1.266.438 3.025.073 1.758-1.17 2.743-3.805 3.025C1.83 7.317.513 6.26.658 4.503c.074-1.76.293-2.744.513-3.025h6.658z" fill="#921938"/><path d="M7.83 1.478c-.074.21-.366.422-1.025.633-.658.21-1.39.21-2.268.21-.951 0-1.756-.07-2.342-.28-.585-.212-1.024-.352-1.024-.563 0-.282.366-.493.951-.634.659-.14 1.464-.21 2.415-.21.951 0 1.756.07 2.341.21.586.141.951.352.951.634z" fill="#B42D6B"/><path d="M2.487 6.191a.405.405 0 01-.365-.211c-.293-.493-.513-1.055-.586-1.618-.073-.493 0-.985.073-1.478 0-.14.074-.21.147-.28.073-.071.22-.071.292-.071.147 0 .22.07.293.14.073.141.073.211.073.282a3.68 3.68 0 000 1.266c0 .493.147.915.44 1.407a.208.208 0 010 .282c0 .07-.074.14-.147.21-.073.071-.146.071-.22.071z" fill="#BF4F7A"/></svg>