<svg width="12" height="11" fill="none" xmlns="http://www.w3.org/2000/svg"><g clip-path="url(#a)"><path d="M11.555 9.68H10.22V11h1.334V9.68ZM1.777 9.68H.444V11h1.333V9.68Z" fill="#7C7C7C"/><path d="M10.445 4.18H1.78v3.96h8.666V4.18Z" fill="#B6534F"/><path d="M2.667 4.398v3.52h6.666v-3.52c0-.729.598-1.32 1.334-1.32.736 0 1.333.591 1.333 1.32v5.72H0v-5.72c0-.729.597-1.32 1.333-1.32s1.334.591 1.334 1.32Z" fill="#A95620"/><path d="M2.665 7.92h6.667V1.76C9.332.79 8.535 0 7.554 0h-3.11c-.981 0-1.779.79-1.779 1.76v6.16Z" fill="#DE9366"/><path d="M6.888 1.76c0 .242.2.44.445.44a.444.444 0 0 0 .444-.44.444.444 0 0 0-.889 0ZM6.888 3.96c0 .242.2.44.445.44a.444.444 0 0 0 .444-.44.444.444 0 0 0-.889 0ZM3.998 1.76a.444.444 0 0 0 .889 0c0-.242-.2-.44-.445-.44a.444.444 0 0 0-.444.44ZM3.998 3.96a.444.444 0 0 0 .889 0c0-.242-.2-.44-.445-.44a.444.444 0 0 0-.444.44Z" fill="#974B19"/></g><defs><clipPath id="a"><path fill="#fff" d="M12 0H0v11h12z"/></clipPath></defs></svg>