<svg viewBox="0 0 12 11" width="12" height="11" fill="none" xmlns="http://www.w3.org/2000/svg"><path d="M11.556 9.68h-1.334V11h1.334V9.68zM1.777 9.68H.444V11h1.333V9.68z" fill="#7C7C7C"/><path d="M10.444 4.18H1.778v3.96h8.666V4.18z" fill="#B6534F"/><path d="M2.667 4.4v3.52h6.666V4.4c0-.729.598-1.32 1.334-1.32.736 0 1.333.591 1.333 1.32v5.72H0V4.4c0-.729.597-1.32 1.333-1.32s1.334.591 1.334 1.32z" fill="#A95620"/><path d="M2.666 7.92h6.667V1.76C9.333.79 8.536 0 7.555 0h-3.11c-.981 0-1.779.79-1.779 1.76v6.16z" fill="#DE9366"/><path d="M6.888 1.76c0 .242.2.44.445.44a.444.444 0 00.444-.44.444.444 0 00-.889 0zM6.888 3.96c0 .243.2.44.445.44a.444.444 0 00.444-.44.444.444 0 00-.889 0zM4 1.76a.444.444 0 00.889 0c0-.242-.2-.44-.445-.44A.444.444 0 004 1.76zM4 3.96a.444.444 0 00.889 0c0-.241-.2-.44-.445-.44A.444.444 0 004 3.96z" fill="#974B19"/></svg>