<svg viewBox="0 0 14 15" xmlns="http://www.w3.org/2000/svg" width="14" height="15" fill="none"><path fill="#E23333" d="M5.923 2.654a5.923 5.923 0 1 1 0 11.846 5.923 5.923 0 0 1 0-11.846m3.759 8.257q.09-.144.168-.295a4.4 4.4 0 0 0 .495-1.9 4.44 4.44 0 0 0-4.463-4.563 4.4 4.4 0 0 0-2.293.665.08.08 0 0 0-.015.123l5.984 5.984a.08.08 0 0 0 .124-.014M5.923 13a4.4 4.4 0 0 0 2.334-.665.08.08 0 0 0 .015-.123L2.288 6.228a.08.08 0 0 0-.124.015q-.09.144-.168.295a4.424 4.424 0 0 0 3.927 6.464"/><path fill="#3971B2" fill-rule="evenodd" d="m9.581 1.987.67-.806c.055-.067.017-.173-.059-.216L9.525.58C9.45.536 9.34.556 9.31.638l-.364.981c-.03.082-.017.174.058.217l.362.21c.076.043.161.008.216-.06" clip-rule="evenodd"/><path fill="#FF654E" fill-rule="evenodd" d="m13.317 2.197-.171-.481c-.021-.059-.029-.109-.005-.161l.223-.486c.048-.095.037-.117-.07-.115l-.546.01c-.062.001-.07-.013-.11-.052l-.375-.364c-.076-.073-.108-.064-.138.037l-.142.502c-.016.054-.016.071-.07.101l-.478.264c-.093.051-.092.076-.003.135l.437.308c.046.034.064.082.076.143l.092.502c.016.105.041.112.126.048l.4-.309a.25.25 0 0 1 .168-.045l.5.067c.107.013.124-.005.086-.104" clip-rule="evenodd"/><path fill="#B71CB2" fill-rule="evenodd" d="M7.303 5.272c1.056-1.362.782-2.706.585-3.507-.22-.896-1.465-.683-1.21.265.246.916.334 1.612.085 2.9z" clip-rule="evenodd"/><path fill="#FFD64E" fill-rule="evenodd" d="m8.592 6.428 2.817-2.34a.235.235 0 0 0 0-.331l-.733-.733a.236.236 0 0 0-.332 0L8.003 5.84z" clip-rule="evenodd"/><path fill="#24B71C" fill-rule="evenodd" d="M12.343 7.949c.934.302 1.21-.93.325-1.196-.784-.235-2.098-.572-3.5.384l.354.57c1.253-.17 1.935-.045 2.82.242" clip-rule="evenodd"/><path fill="#A039B2" fill-rule="evenodd" d="m13.767 5.074.23-1.352c.02-.113-.092-.208-.207-.208h-1.01c-.114 0-.227.095-.208.208l.232 1.352c.019.113.093.208.208.208h.547c.114 0 .189-.095.208-.208" clip-rule="evenodd"/><path fill="#3971B2" fill-rule="evenodd" d="M9.523 6.92a9 9 0 0 0-.606-.761 11 11 0 0 0-.305-.329q-.165-.16-.34-.315a9 9 0 0 0-.732-.583 6 6 0 0 0-.703-.432c-.687-.347-1.263-.391-1.477.124-.005.01-.042.112-.071.174l-.217.61-.366 1.027-.529 1.486-.415 1.169-.464 1.3c-.114.322-.079.561.068.683.123.147.362.182.683.068l1.302-.463 1.17-.415 1.486-.529 1.027-.365.61-.217c.063-.029.165-.066.175-.07.502-.209.474-.762.15-1.426a5 5 0 0 0-.2-.363 6 6 0 0 0-.245-.373" clip-rule="evenodd"/><path fill="#E23333" fill-rule="evenodd" d="m9.558 10.925-1.286 1.287-5.985-5.984 1.287-1.287z" clip-rule="evenodd"/></svg>