<svg viewBox="0 0 11 13" width="11" height="13" fill="none" xmlns="http://www.w3.org/2000/svg"><path d="M8.602 8.79a.627.627 0 01-.493-.222.686.686 0 01-.212-.517V3.915c0-.739-.282-1.33-.705-1.773-.423-.443-.987-.739-1.692-.739s-1.27.222-1.692.739c-.494.443-.706 1.034-.706 1.773v2.363c0 .222-.07.37-.211.517a.627.627 0 01-.494.222.627.627 0 01-.493-.222c-.141-.073-.141-.295-.141-.517V3.915c0-1.108.352-2.068 1.057-2.807C3.526.369 4.442 0 5.5 0s1.974.37 2.68 1.108c.704.739 1.057 1.699 1.057 2.807V8.05c0 .222-.07.37-.211.517l-.424.222z" fill="#92969A"/><path d="M9.59 13H1.34c-.353 0-.705-.148-.987-.443-.212-.222-.353-.591-.353-.96V6.574c0-.37.141-.739.423-1.034.212-.222.564-.37.917-.37h8.25c.423 0 .705.148.987.444.282.295.423.59.423 1.034v4.949c0 .369-.141.738-.423 1.034-.282.221-.564.369-.987.369z" fill="#EF8A14"/><path d="M1.199 11.892h-.07c-.142 0-.212-.074-.283-.148a.57.57 0 01-.14-.295V6.72c0-.147.07-.221.14-.295.07-.074.141-.148.282-.148h.07c.142 0 .212.074.283.148a.57.57 0 01.14.295v4.728c0 .148-.07.221-.14.295-.07.074-.141.148-.282.148z" fill="#FFD36A"/></svg>