<svg viewBox="0 0 14 14" xmlns="http://www.w3.org/2000/svg" width="14" height="14" fill="none"><path fill="#5E5F6C" d="M9.656 2.61H4.344l.5-1.3A1.147 1.147 0 0 1 5.912.574h2.172a1.148 1.148 0 0 1 1.072.736l.5 1.3Z"/><path fill="#8A919D" d="M3.097 1.113h-.802a.479.479 0 0 0-.48.48V2.61h1.761V1.593a.48.48 0 0 0-.48-.48Z"/><path fill="#6D6E7B" d="M14 4.273v7.332a1.816 1.816 0 0 1-1.816 1.816H1.816A1.814 1.814 0 0 1 0 11.605V4.273c0-1.004.812-1.82 1.816-1.82h10.367c1.005 0 1.817.816 1.817 1.82Z"/><path fill="#fff" d="M7 11.704a3.764 3.764 0 1 0 0-7.528 3.764 3.764 0 0 0 0 7.528Z"/><path fill="#000" d="M7 10.42a2.481 2.481 0 1 0 0-4.963 2.481 2.481 0 0 0 0 4.962ZM11.631 5.348a.586.586 0 1 0 0-1.172.586.586 0 0 0 0 1.172Z"/></svg>