<svg viewBox="0 0 15 10" width="15" height="10" fill="none" xmlns="http://www.w3.org/2000/svg"><path d="M8.074 1.445V.713h.346c.092 0 .18-.037.245-.104a.362.362 0 0 0 0-.505A.341.341 0 0 0 8.42 0H7.035a.341.341 0 0 0-.245.104.362.362 0 0 0 0 .505.341.341 0 0 0 .245.104h.346v.732c-3.472.186-6.233 3.137-6.233 6.76 0 .365.036.72.09 1.07h12.98c.053-.35.09-.705.09-1.07 0-3.623-2.762-6.573-6.234-6.76Z" fill="#CFAF3B"/><path d="M7.895 1.438c2.91.913 5.027 3.698 5.027 6.994 0 .287-.025.568-.059.845h1.354c.054-.35.09-.705.09-1.07 0-3.685-2.856-6.677-6.412-6.77Z" fill="#BC8C10"/><path opacity=".5" d="M3.748 5.126a.339.339 0 0 1-.186-.056.366.366 0 0 1-.08-.53 5.525 5.525 0 0 1 2.811-1.844.337.337 0 0 1 .263.035c.08.048.138.126.162.217a.366.366 0 0 1-.035.27.348.348 0 0 1-.21.167 4.832 4.832 0 0 0-2.459 1.614.347.347 0 0 1-.266.127Zm-.902 1.61a.338.338 0 0 1-.284-.152.363.363 0 0 1-.042-.327c.077-.219.167-.432.27-.64a.355.355 0 0 1 .201-.177.337.337 0 0 1 .37.108.36.36 0 0 1 .083.26.365.365 0 0 1-.037.133 4.817 4.817 0 0 0-.236.56.356.356 0 0 1-.126.17.34.34 0 0 1-.199.065Z" fill="#fff"/><path d="M14.307 8.559H1.147a.703.703 0 0 0-.692.713c0 .394.31.714.693.714h13.16c.382 0 .692-.32.692-.714a.703.703 0 0 0-.693-.713Z" fill="#CC9812"/><path d="M14.307 8.559h-1.731c.183 0 .36.075.49.209.13.133.202.315.202.504 0 .19-.073.37-.202.505a.683.683 0 0 1-.49.209h1.731c.184 0 .36-.076.49-.21a.724.724 0 0 0 0-1.008.683.683 0 0 0-.49-.21Z" fill="#BA7F0E"/></svg>