<svg viewBox="0 0 14 11" width="14" height="11" fill="none" xmlns="http://www.w3.org/2000/svg"><path d="M3.75 10.43C5.545 10.43 7 8.224 7 5.5S5.545.569 3.75.569.5 2.777.5 5.499c0 2.724 1.455 4.932 3.25 4.932Z" fill="#ECF0F1"/><path d="M7 5.5C7 2.776 5.545.569 3.75.569S.5 2.776.5 5.499l.004.254c.084 2.522 1.417 4.544 3.079 4.671l.167.007c1.739 0 3.16-2.072 3.246-4.678L7 5.5Zm.5 0c0 1.445-.385 2.777-1.034 3.762-.647.981-1.597 1.67-2.716 1.67-1.12 0-2.07-.689-2.716-1.67C.385 8.277 0 6.945 0 5.5c0-1.446.385-2.777 1.034-3.762C1.681.757 2.631.068 3.75.068c1.12 0 2.07.689 2.716 1.67C7.115 2.723 7.5 4.054 7.5 5.5Z" fill="#888A96"/><path d="M10.25 10.43c1.795 0 3.25-2.207 3.25-4.93S12.045.569 10.25.569 7 2.777 7 5.499c0 2.724 1.455 4.932 3.25 4.932Z" fill="#ECF0F1"/><path d="M13.5 5.5c0-2.724-1.455-4.931-3.25-4.931S7 2.776 7 5.499l.004.254c.084 2.522 1.417 4.544 3.079 4.671l.167.007c1.739 0 3.16-2.072 3.246-4.678L13.5 5.5Zm.5 0c0 1.445-.385 2.777-1.034 3.762-.647.981-1.597 1.67-2.716 1.67-1.12 0-2.07-.689-2.716-1.67C6.885 8.277 6.5 6.945 6.5 5.5c0-1.446.385-2.777 1.034-3.762C8.181.757 9.131.068 10.25.068c1.12 0 2.07.689 2.716 1.67C13.615 2.723 14 4.054 14 5.5Z" fill="#888A96"/><path d="M3.19 8.862c1.238 0 2.241-1.505 2.241-3.362 0-1.857-1.003-3.362-2.241-3.362C1.952 2.138.948 3.643.948 5.5c0 1.857 1.004 3.362 2.242 3.362ZM9.69 8.862c1.238 0 2.241-1.505 2.241-3.362 0-1.857-1.003-3.362-2.241-3.362-1.238 0-2.242 1.505-2.242 3.362 0 1.857 1.004 3.362 2.242 3.362Z" fill="#2FA8CC"/><path d="M2.965 7.741c.867 0 1.57-1.003 1.57-2.241 0-1.238-.703-2.242-1.57-2.242-.866 0-1.569 1.004-1.569 2.242S2.1 7.74 2.966 7.74ZM9.465 7.741c.867 0 1.57-1.003 1.57-2.241 0-1.238-.703-2.242-1.57-2.242-.866 0-1.569 1.004-1.569 2.242S8.6 7.74 9.466 7.74Z" fill="#35495E"/><path d="M4.086 4.603a.672.672 0 1 0 0-1.345.672.672 0 0 0 0 1.345ZM10.586 4.603a.672.672 0 1 0 0-1.344.672.672 0 0 0 0 1.344Z" fill="#ECF0F1"/></svg>