<svg viewBox="0 0 14 13" xmlns="http://www.w3.org/2000/svg" width="14" height="13" fill="none"><path fill="#FFDA44" d="M13.774 1.194v5.193H12.42V2.548H1.581v3.84H.226V1.193z"/><path fill="#FFEB99" d="M4.968 2.548h4.064v2.71a.45.45 0 0 1-.451.452H5.419a.45.45 0 0 1-.451-.452zm-3.387 0h3.387v2.71a.45.45 0 0 1-.452.452H2.032a.45.45 0 0 1-.451-.452zm7.451 0h3.387v2.71a.45.45 0 0 1-.451.452H9.484a.45.45 0 0 1-.452-.452z"/><path fill="#C49A6C" d="M3.387 7.742h7.226v4.065H3.387z"/><path fill="#000" d="M13.774.968H.226A.226.226 0 0 0 0 1.194v5.193a.226.226 0 0 0 .226.226H1.58a.226.226 0 0 0 .225-.226v-.493a.7.7 0 0 0 .226.041h2.484a.67.67 0 0 0 .452-.176.67.67 0 0 0 .451.176h3.162a.67.67 0 0 0 .451-.176.67.67 0 0 0 .452.176h2.484a.7.7 0 0 0 .226-.041v.493a.226.226 0 0 0 .225.226h1.355A.226.226 0 0 0 14 6.387V1.194a.226.226 0 0 0-.226-.226M4.516 5.484H2.032a.226.226 0 0 1-.226-.226V2.774h2.936v2.484a.226.226 0 0 1-.226.226m4.065 0H5.419a.226.226 0 0 1-.225-.226V2.774h3.612v2.484a.226.226 0 0 1-.225.226m3.387 0H9.484a.226.226 0 0 1-.226-.226V2.774h2.936v2.484a.226.226 0 0 1-.226.226m1.58.677h-.903V2.548a.226.226 0 0 0-.226-.225H1.581a.226.226 0 0 0-.226.225v3.613H.452V1.42h13.096zm-2.935 1.355H3.387a.226.226 0 0 0-.226.226v4.065a.226.226 0 0 0 .226.225h7.226a.226.226 0 0 0 .226-.226V7.743a.226.226 0 0 0-.226-.226m-.226 4.065H3.613V7.968h6.774z"/></svg>