<svg viewBox="0 0 10 16" width="10" height="16" fill="none" xmlns="http://www.w3.org/2000/svg"><path d="m6.675.09-.03 6.614-4.108-.09v-.731l-.12-.085V2.386l.16-.183c-.008-.282-.002-.15-.029-.59l-.132-.133V0H4.56l.057.09h2.058Z" fill="#FC6"/><path d="M6.705 0v3.413l-.098.17c.016.553.014.46.098.736v1.48l-.09.06v.846H4.56V0h2.144Z" fill="#FFA64D"/><path d="M2.416 1.48H4.56v.906H2.416V1.48Z" fill="#DDA369"/><path d="M4.56 3.414h2.145v.906H4.56v-.906Z" fill="#B48456"/><path d="M9 14.71c0 .215-.011.305-.034.573H4.827l-.266.12H.034l-.026-.425a4.571 4.571 0 0 1 2.408-4.295V8.88l.09-.109v-2.85l4.138-.03-.15 4.852C7.97 11.532 9 13.021 9 14.71Z" fill="#00CC76"/><path d="M9.12 14.708c0 .176-.007.263-.033.695H4.561V5.89l2.083-.03v2.915l.06.104v1.803a4.573 4.573 0 0 1 2.417 4.026Z" fill="#00AA95"/><path d="M6.543 5.922c.797 0 1.439.653 1.425 1.45A1.475 1.475 0 0 1 6.494 8.82H4.677c-.03 0-.059.01-.082.03a.124.124 0 0 1-.08.03H2.618a1.54 1.54 0 0 1 0-3.08h1.867c.047 0 .09.022.118.06.028.038.072.06.119.06h1.82Z" fill="#00A45F"/><path d="M4.56 5.8h1.942a1.54 1.54 0 0 1 0 3.081H4.56v-3.08Z" fill="#008373"/></svg>