<svg viewBox="0 0 15 15" width="15" height="15" fill="none" xmlns="http://www.w3.org/2000/svg"><path fill-rule="evenodd" clip-rule="evenodd" d="m9.153 2.04.885-1.066c.074-.089.024-.229-.077-.286l-.883-.51c-.1-.057-.247-.03-.286.078L8.31 1.554c-.04.108-.023.23.076.286l.479.277c.1.058.213.012.287-.077Z" fill="#39B362"/><path fill-rule="evenodd" clip-rule="evenodd" d="m14.096 2.32-.227-.637c-.027-.077-.038-.143-.006-.213l.296-.643c.063-.125.048-.154-.093-.152l-.723.014c-.082.001-.092-.018-.146-.07L12.7.139c-.1-.098-.143-.086-.182.048L12.33.85c-.02.072-.02.094-.091.134l-.634.35c-.123.067-.12.1-.004.177l.579.409c.061.044.085.107.1.188l.123.664c.02.14.053.149.166.064l.53-.408a.335.335 0 0 1 .221-.06l.663.089c.14.017.163-.006.113-.138Z" fill="#FFAD4E"/><path fill-rule="evenodd" clip-rule="evenodd" d="M6.137 6.388c1.397-1.803 1.035-3.58.775-4.64-.291-1.186-1.94-.905-1.603.35.326 1.211.443 2.133.113 3.838l.715.452Z" fill="#ED3F7F"/><path fill-rule="evenodd" clip-rule="evenodd" d="m7.843 7.92 3.728-3.097a.311.311 0 0 0 0-.439l-.97-.97a.312.312 0 0 0-.44 0L7.064 7.14l.779.78Z" fill="#FFAD4E"/><path fill-rule="evenodd" clip-rule="evenodd" d="M12.807 9.932c1.236.4 1.6-1.232.43-1.583-1.037-.311-2.776-.757-4.632.508l.469.754c1.658-.224 2.561-.059 3.733.32Z" fill="#ED3F7F"/><path fill-rule="evenodd" clip-rule="evenodd" d="m3.274 2.106.628-.443c.127-.085.129-.12-.005-.193l-.687-.38c-.078-.043-.077-.067-.1-.145l-.205-.72C2.863.077 2.817.064 2.708.17L2.17.693C2.11.75 2.1.77 2.01.769L1.226.754c-.152-.003-.168.028-.1.165l.322.698c.034.075.023.147-.007.232l-.246.69c-.055.142-.03.169.122.15l.72-.097a.37.37 0 0 1 .24.065l.575.443c.122.092.157.082.18-.068l.133-.721c.017-.088.042-.157.11-.205Z" fill="#FFAD4E"/><path fill-rule="evenodd" clip-rule="evenodd" d="m14.692 6.127.305-1.79c.026-.148-.123-.274-.275-.274h-1.336c-.151 0-.301.126-.276.275l.307 1.79c.025.148.123.274.275.274h.724c.151 0 .25-.126.276-.275Z" fill="#39B362"/><path fill-rule="evenodd" clip-rule="evenodd" d="m14.426 12.62.493-.592c.101-.114.093-.149-.055-.186l-.763-.189c-.087-.02-.092-.044-.135-.114l-.385-.644c-.078-.13-.125-.13-.204 0l-.386.644c-.042.07-.047.093-.134.114l-.763.19c-.148.036-.155.07-.054.185l.492.592c.053.064.06.137.053.226l-.059.732c-.017.152.015.17.157.113l.671-.28c.07-.029.18-.029.25 0l.671.28c.141.057.173.038.157-.113l-.059-.732c-.007-.09 0-.162.053-.226Z" fill="#FFAD4E"/><path fill-rule="evenodd" clip-rule="evenodd" d="M9.076 8.569c-.237-.335-.51-.676-.803-1.007a13.862 13.862 0 0 0-.403-.435 11.922 11.922 0 0 0-1.419-1.188 8.15 8.15 0 0 0-.539-.354 6.346 6.346 0 0 0-.392-.218c-.909-.46-1.671-.518-1.954.163-.006.014-.056.149-.094.231l-.288.808-.483 1.359L2 9.894l-.55 1.547-.613 1.721c-.15.425-.105.742.09.903.161.195.478.241.904.09l1.722-.613 1.548-.55 1.967-.699 1.359-.483.808-.287c.083-.038.217-.088.232-.094.664-.275.626-1.007.196-1.886a6.145 6.145 0 0 0-.263-.48 8.108 8.108 0 0 0-.324-.493l-.001-.001Z" fill="#39B362"/><path fill-rule="evenodd" clip-rule="evenodd" d="M8.428 11.811c-.189-.89-1.046-2.114-2.07-3.172C5.3 7.616 4.077 6.759 3.186 6.57L2.7 7.93c.787.36 1.705 1.052 2.525 1.842.79.82 1.483 1.737 1.843 2.523l1.36-.483ZM5.102 12.994a11.962 11.962 0 0 0-1.388-1.712 11.962 11.962 0 0 0-1.713-1.387l-.55 1.547c.382.291.765.622 1.129.973.351.364.682.746.974 1.128l1.548-.55Z" fill="#FFAD4E"/></svg>