<svg viewBox="0 0 14 15" xmlns="http://www.w3.org/2000/svg" width="14" height="15" fill="none"><rect width="9" height="1.5" x="2.5" y=".5" fill="#325EEF" rx=".75"/><path fill="#325EEF" d="M4.201 10.122c0 .385-.203.726-.497.84a.6.6 0 0 1-.203.034c-.231 0-.448-.14-.581-.393L1.4 7.762v2.36c0 .481-.315.874-.7.874s-.7-.393-.7-.874V4.877c0-.385.203-.725.497-.84.294-.113.616.036.784.36l1.52 2.84v-2.36c0-.48.315-.874.7-.874s.7.393.7.874zm3.5-3.497c.386 0 .701.394.701.875 0 .48-.315.874-.7.874h-1.4v.874h1.4c.385 0 .7.393.7.874s-.315.874-.7.874h-2.1c-.386 0-.7-.393-.7-.874V4.877c0-.48.314-.874.7-.874h2.1c.385 0 .7.393.7.874 0 .48-.315.874-.7.874h-1.4v.874zm5.594 3.637c-.056.393-.308.69-.623.734h-.07c-.287 0-.553-.227-.658-.568l-.392-1.311-.392 1.311c-.112.376-.413.603-.728.568-.315-.043-.567-.34-.623-.734l-.7-5.245c-.02-.224.029-.45.138-.629.11-.18.27-.3.448-.336a.6.6 0 0 1 .51.143.9.9 0 0 1 .29.542l.266 2.028.133-.445c.105-.341.364-.569.658-.569s.553.228.658.569l.133.445.266-2.028a.9.9 0 0 1 .29-.542.6.6 0 0 1 .51-.143.7.7 0 0 1 .448.336c.11.18.159.405.139.629z"/><rect width="9" height="1.5" x="2.5" y="13" fill="#325EEF" rx=".75"/></svg>