<svg viewBox="0 0 14 15" width="14" height="15" fill="none" xmlns="http://www.w3.org/2000/svg"><path d="M6.7 14.5c3.7 0 6.698-3.134 6.698-7S10.4.5 6.7.5C3 .5 0 3.634 0 7.5s3 7 6.7 7Z" fill="#E88102"/><path d="M6.7 13.762A6.63 6.63 0 1 0 6.7.5a6.63 6.63 0 0 0 0 13.262Z" fill="#FDD835"/><path d="M9.346 1.05.618 9.775a6.56 6.56 0 0 1-.53-2.16L7.182.516c.763.058 1.49.241 2.163.534Zm3.13 2.827-9.03 9.032a6.62 6.62 0 0 1-1.518-1.176l9.376-9.374c.46.443.856.955 1.173 1.518Zm-1.443-1.766-9.351 9.351a7.056 7.056 0 0 1-.413-.53l9.234-9.234c.183.128.36.268.53.413Zm2.09 3.366-8.078 8.077a6.992 6.992 0 0 1-.714-.227l8.564-8.564c.088.232.164.47.227.714Z" fill="#fff" fill-opacity=".314"/><path d="M13.33 7.13c0 .047 0 .091-.003.138A6.628 6.628 0 0 0 6.7.773 6.628 6.628 0 0 0 .071 7.268c0-.047-.003-.09-.003-.137a6.632 6.632 0 0 1 13.262 0Z" fill="#fff" fill-opacity=".314"/><path d="M12.086 7.418a5.197 5.197 0 0 1-9.201 3.309 5.196 5.196 0 0 0 7.82-6.836 5.184 5.184 0 0 1 1.38 3.527Z" fill="#fff" fill-opacity=".314"/><path d="M6.7 12.395a5.195 5.195 0 1 0 0-10.391 5.195 5.195 0 0 0 0 10.39Z" fill="#F39E09"/><path d="M10.637 3.809a5.197 5.197 0 0 0-7.328 7.328 5.197 5.197 0 1 1 7.328-7.328Z" fill="#E88102"/><path d="M6.374 5.876c-.093.106-.142.254-.142.443 0 .188.054.344.164.456.11.112.284.22.525.323.24.101.467.208.68.317.214.11.397.235.553.375.156.14.276.303.364.49.032.07.13.204.13.204v.468c0 .443-.139.804-.42 1.083-.282.279-.662.443-1.146.49v.776h-.618v-.785c-.563-.06-.995-.252-1.299-.58-.3-.328-.45-.757-.45-1.293v-.41l1.306.41c0 .295.066.52.197.673.131.153.317.23.558.23a.546.546 0 0 0 .415-.16c.102-.106.15-.248.15-.431 0-.205-.048-.364-.15-.482-.1-.117-.278-.227-.53-.33a10.885 10.885 0 0 1-.703-.315c-.216-.107-.399-.23-.555-.369-.156-.14-.273-.3-.358-.484a1.624 1.624 0 0 1-.123-.667v-.435s.243-.457.443-.645c.295-.285.689-.449 1.178-.495v-.815h.618v.834c.473.071.845.265 1.116.585.186.219.405.807.405.807v.41H7.369c0-.268-.052-.476-.156-.62a.512.512 0 0 0-.443-.217.494.494 0 0 0-.396.159Z" fill="#DB6704"/><path d="M7.342 8.547c0-.205-.05-.363-.15-.481-.102-.118-.28-.227-.531-.33a10.89 10.89 0 0 1-.703-.315 2.45 2.45 0 0 1-.555-.37c-.156-.139-.273-.3-.358-.483a1.633 1.633 0 0 1-.123-.668c0-.437.148-.798.443-1.08.295-.281.689-.448 1.178-.495v-.817h.618v.834c.473.07.845.265 1.116.585.27.32.405.725.405 1.217H7.369c0-.268-.052-.476-.156-.621a.512.512 0 0 0-.443-.216.501.501 0 0 0-.396.161c-.093.107-.142.255-.142.443 0 .189.054.345.164.457.11.112.284.219.522.323.24.1.468.207.68.317.214.11.397.235.553.374.156.14.276.304.364.49.087.186.131.41.131.67 0 .443-.14.804-.42 1.083-.283.279-.663.443-1.147.49v.776h-.618v-.785c-.563-.06-.995-.252-1.298-.58-.301-.328-.452-.757-.452-1.293h1.307c0 .295.066.52.197.672.132.154.318.23.558.23a.546.546 0 0 0 .416-.158.593.593 0 0 0 .153-.43Z" fill="#FDD835"/><path d="M5.365 4.82c.158-.153.347-.27.563-.355l-.927.93a1.38 1.38 0 0 1 .364-.575Zm1.52-1.312-.342.342v-.342h.342Zm1.622 4.34L6.273 10.08c-.47-.079-.84-.265-1.105-.552a1.655 1.655 0 0 1-.37-.665l.63-.628h.596c0 .295.065.52.197.672.131.153.317.23.558.23a.546.546 0 0 0 .415-.159c.101-.106.15-.249.15-.432 0-.205-.049-.363-.15-.481-.101-.118-.279-.227-.53-.33-.18-.075-.35-.148-.512-.225l.81-.81c.227.099.44.197.642.301.214.11.397.236.553.375.147.137.265.293.35.47Zm.175-1.707H7.52l.943-.943c.145.268.219.582.219.943ZM4.717 8.233h.194l-.186.186a2.068 2.068 0 0 1-.008-.186Zm1.679-1.868c.054.058.125.112.216.167l-.81.81a2.099 2.099 0 0 1-.525-.416l.96-.96a.607.607 0 0 0 .159.4Zm1.854-1.47-.914.912a.77.77 0 0 0-.12-.284.496.496 0 0 0-.328-.208l.817-.817c.211.095.391.227.545.396ZM6.765 10.89l.317-.318v.318h-.317Zm1.8-1.8c-.07.203-.181.378-.335.53-.153.154-.336.272-.55.354l.884-.884Z" fill="#fff" fill-opacity=".314"/><path d="M11.033 4.33a12.42 12.42 0 0 0-7.388 7.072 5.17 5.17 0 0 1-.336-.268 5.197 5.197 0 0 1 7.325-7.325c.145.166.276.341.4.522Z" fill="#fff" fill-opacity=".145"/></svg>