<svg viewBox="0 0 16 15" width="16" height="15" fill="none" xmlns="http://www.w3.org/2000/svg"><path d="M5.162 8.32 3.727 9.836.301 5.69l-.12-.157C.129 5.45.062 5.373.062 5.293h3.825l1.275 3.028zM3.727 9.836l4.222 4.762-2.111-4.762h-2.11z" fill="#067AA7"/><path d="M8.03 14.614c-.08 0-.08 0 0 0l2.144-4.779h2.081L8.03 14.614zm2.79-6.293 1.435 1.514 3.665-4.223.053-.083C16 5.456 16 5.453 16 5.373h-4.043L10.82 8.321z" fill="#36ACDF"/><path d="M5.879 3.142 3.887 5.293H.062s0-.08.08-.239L3.804.867h.155c.16 0 .246.123.246.363 0 .08.048.064.048.144L5.88 3.142zM3.887 5.293l1.275 3.028L8.03 5.293H3.887zm1.912 4.462 2.151 4.86h.08l2.151-4.78-4.382-.08zM7.95 5.293l2.869 3.028 1.195-3.028H7.95zm2.869 3.028-.638 1.514h2.08L10.82 8.321z" fill="#2794CD"/><path d="M5.881 3.143 3.809.912V.863H7.946l-2.065 2.28zm6.35-2.28H7.945l2.163 2.28L12.23.863z" fill="#38A9DA"/><path d="M7.95 5.296H3.887l1.992-2.151 2.071 2.15z" fill="#1DB4EB"/><path d="M5.845 9.832H3.727L5.162 8.32l.683 1.512z" fill="#006898"/><path d="m7.95 5.293 2.869 3.028-.64 1.517H5.823l-.661-1.517L7.95 5.293z" fill="#0088BD"/><path d="M12.092 5.296H7.95L10.1 3.145l1.992 2.15z" fill="#B2E2F9"/><path d="M5.88 3.143 7.948.863l2.153 2.28-2.151 2.151-2.072-2.151zm10.039 1.992c-.08 0-.08 0 0 0L12.233.842l-2.13 2.3 1.991 2.232h3.896c0-.113-.01-.124-.071-.24z" fill="#57C0E8"/><path d="M10.693 5.38c.318-.08.557-.24.796-.398.24-.24.399-.479.478-.797.08-.08.08-.08.16 0 .08.318.239.558.398.797.24.239.478.318.797.398.08.08.08.08 0 .16-.319.079-.558.238-.797.398-.239.239-.319.478-.398.797-.08.08-.08.08-.16 0-.08-.32-.239-.558-.478-.797-.239-.24-.478-.319-.796-.399-.08-.08-.08-.159 0-.159z" fill="#fff"/></svg>